<?xml version="1.0" standalone="no"?><!DOCTYPE svg PUBLIC "-//W3C//DTD SVG 1.1//EN" "http://www.w3.org/Graphics/SVG/1.1/DTD/svg11.dtd"><svg t="1627634366920" class="icon" viewBox="0 0 1024 1024" version="1.1" xmlns="http://www.w3.org/2000/svg" p-id="21788" xmlns:xlink="http://www.w3.org/1999/xlink" width="200" height="200"><defs><style type="text/css">@font-face { font-family: feedback-iconfont; src: url("//at.alicdn.com/t/font_1031158_1uhr8ri0pk5.eot?#iefix") format("embedded-opentype"), url("//at.alicdn.com/t/font_1031158_1uhr8ri0pk5.woff2") format("woff2"), url("//at.alicdn.com/t/font_1031158_1uhr8ri0pk5.woff") format("woff"), url("//at.alicdn.com/t/font_1031158_1uhr8ri0pk5.ttf") format("truetype"), url("//at.alicdn.com/t/font_1031158_1uhr8ri0pk5.svg#iconfont") format("svg"); }
</style></defs><path d="M490.5 523.7c-5 0-10-2.4-13-6.9-4.8-7.2-2.8-16.8 4.3-21.6l107.4-71.6c7.1-4.8 16.8-2.8 21.6 4.3 4.8 7.2 2.8 16.8-4.3 21.6l-107.4 71.6c-2.7 1.8-5.7 2.6-8.6 2.6zM404.3 466.3c-5 0-10-2.4-13-6.9-4.8-7.2-2.8-16.8 4.3-21.6L557 330.2c7.1-4.8 16.8-2.9 21.6 4.3 4.8 7.2 2.8 16.8-4.3 21.6L412.9 463.7c-2.6 1.8-5.6 2.6-8.6 2.6zM318.2 408.9c-5 0-10-2.4-13-6.9-4.8-7.2-2.8-16.8 4.3-21.6l215.4-143.6c7.1-4.8 16.8-2.8 21.6 4.3s2.8 16.8-4.3 21.6L326.8 406.3c-2.7 1.7-5.7 2.6-8.6 2.6z" p-id="21789"></path><path d="M852.2 357.4L533.6 144.9c-12.3-8.2-30.9-8.2-43.2 0L171.8 357.4c-7.8 5.2-12.3 13.1-12.3 21.6s4.5 16.4 12.3 21.6L490.4 613c6.2 4.1 13.9 6.1 21.6 6.1 7.7 0 15.5-2 21.6-6.1l318.6-212.4c7.8-5.2 12.3-13.1 12.3-21.6s-4.4-16.4-12.3-21.6zM516.4 587.1c-2 1.3-6.8 1.3-8.7 0L195.5 379l312.1-208.2c1.9-1.3 6.8-1.3 8.7 0l312.2 208.1-312.1 208.2zM835 383.3l8.6-13-8.6 13z" p-id="21790"></path><path d="M512 752.2c-7.7 0-15.5-2-21.6-6.2L171.8 533.6c-7.2-4.8-9.1-14.4-4.3-21.6 4.8-7.2 14.4-9.1 21.6-4.3l318.6 212.4c2 1.3 6.7 1.3 8.7 0L835 507.8c7.1-4.8 16.8-2.8 21.6 4.3 4.8 7.2 2.8 16.8-4.3 21.6L533.6 746.1c-6.1 4.1-13.9 6.1-21.6 6.1z" p-id="21791"></path><path d="M512 885.3c-7.7 0-15.5-2-21.6-6.2L171.8 666.7c-7.2-4.8-9.1-14.4-4.3-21.6s14.4-9.1 21.6-4.3l318.6 212.4c2 1.3 6.7 1.3 8.7 0L835 640.8c7.1-4.8 16.8-2.9 21.6 4.3s2.8 16.8-4.3 21.6L533.6 879.1c-6.1 4.1-13.9 6.2-21.6 6.2z" p-id="21792"></path></svg>