<?xml version="1.0" standalone="no"?><!DOCTYPE svg PUBLIC "-//W3C//DTD SVG 1.1//EN" "http://www.w3.org/Graphics/SVG/1.1/DTD/svg11.dtd"><svg t="1627634400482" class="icon" viewBox="0 0 1024 1024" version="1.1" xmlns="http://www.w3.org/2000/svg" p-id="22333" xmlns:xlink="http://www.w3.org/1999/xlink" width="200" height="200"><defs><style type="text/css">@font-face { font-family: feedback-iconfont; src: url("//at.alicdn.com/t/font_1031158_1uhr8ri0pk5.eot?#iefix") format("embedded-opentype"), url("//at.alicdn.com/t/font_1031158_1uhr8ri0pk5.woff2") format("woff2"), url("//at.alicdn.com/t/font_1031158_1uhr8ri0pk5.woff") format("woff"), url("//at.alicdn.com/t/font_1031158_1uhr8ri0pk5.ttf") format("truetype"), url("//at.alicdn.com/t/font_1031158_1uhr8ri0pk5.svg#iconfont") format("svg"); }
</style></defs><path d="M799.197483 1024H224.802517A130.013483 130.013483 0 0 1 94.881079 894.067056V227.374022A130.013483 130.013483 0 0 1 224.802517 97.452584h47.65627v64.960719h-47.65627a65.018247 65.018247 0 0 0-64.972225 64.960719v666.693034a65.018247 65.018247 0 0 0 64.960719 64.960719h574.406472a65.018247 65.018247 0 0 0 64.960719-64.960719V227.374022a65.018247 65.018247 0 0 0-64.960719-64.960719h-42.099056V97.452584h42.099056a130.013483 130.013483 0 0 1 129.921438 129.921438v666.693034A130.013483 130.013483 0 0 1 799.197483 1024z"  p-id="22334"></path><path d="M644.308854 259.854382h-264.629214a129.932944 129.932944 0 0 1 0-259.854382h264.629214a129.932944 129.932944 0 0 1 0 259.854382z m-264.629214-194.893663a64.972225 64.972225 0 0 0 0 129.932944h264.629214a64.972225 64.972225 0 0 0 0-129.932944z"  p-id="22335"></path><path d="M241.796315 374.910562m32.480359 0l475.446652 0q32.48036 0 32.480359 32.480359l0 0q0 32.48036-32.480359 32.48036l-475.446652 0q-32.48036 0-32.480359-32.48036l0 0q0-32.48036 32.480359-32.480359Z"  p-id="22336"></path><path d="M241.796315 541.845573m32.480359 0l475.446652 0q32.48036 0 32.480359 32.48036l0 0q0 32.48036-32.480359 32.480359l-475.446652 0q-32.48036 0-32.480359-32.480359l0 0q0-32.48036 32.480359-32.48036Z"  p-id="22337"></path><path d="M241.796315 708.780584m32.480359 0l475.446652 0q32.48036 0 32.480359 32.48036l0 0q0 32.48036-32.480359 32.480359l-475.446652 0q-32.48036 0-32.480359-32.480359l0 0q0-32.48036 32.480359-32.48036Z"  p-id="22338"></path></svg>