<?xml version="1.0" standalone="no"?><!DOCTYPE svg PUBLIC "-//W3C//DTD SVG 1.1//EN" "http://www.w3.org/Graphics/SVG/1.1/DTD/svg11.dtd"><svg t="1627634379875" class="icon" viewBox="0 0 1024 1024" version="1.1" xmlns="http://www.w3.org/2000/svg" p-id="22090" xmlns:xlink="http://www.w3.org/1999/xlink" width="200" height="200"><defs><style type="text/css">@font-face { font-family: feedback-iconfont; src: url("//at.alicdn.com/t/font_1031158_1uhr8ri0pk5.eot?#iefix") format("embedded-opentype"), url("//at.alicdn.com/t/font_1031158_1uhr8ri0pk5.woff2") format("woff2"), url("//at.alicdn.com/t/font_1031158_1uhr8ri0pk5.woff") format("woff"), url("//at.alicdn.com/t/font_1031158_1uhr8ri0pk5.ttf") format("truetype"), url("//at.alicdn.com/t/font_1031158_1uhr8ri0pk5.svg#iconfont") format("svg"); }
</style></defs><path d="M944.014 711.668L798.505 857.177 696.633 959.053h-96.869a30.514 30.514 0 0 1-30.293-30.3v-97.1l101.757-101.755 145.51-145.51a50 50 0 0 1 70.711 0l56.565 56.565a50 50 0 0 1 0 70.715z m-63.639-49.5l-14.142-14.142a20 20 0 0 0-28.285 0l-208.477 208.48v42.547h42.309l208.6-208.6a20 20 0 0 0-0.005-28.283z m-35.047-150.215a30 30 0 0 1-30-30v-337a20 20 0 0 0-20-20h-650a20 20 0 0 0-20 20v734a20 20 0 0 0 20 20h306a30 30 0 0 1 0 60h-336a50 50 0 0 1-50-50v-794a50 50 0 0 1 50-50h710a50 50 0 0 1 50 50v367a30 30 0 0 1-30 30z m-629-145.021a29.979 29.979 0 0 1 29.979-29.979h448.042a29.979 29.979 0 1 1 0 59.957H246.307a29.979 29.979 0 0 1-29.979-29.978z m365.021 175.021H246.307a29.979 29.979 0 0 1-29.979-29.979v-0.042a29.979 29.979 0 0 1 29.979-29.979h335.042a29.979 29.979 0 0 1 29.979 29.979v0.042a29.979 29.979 0 0 1-29.979 29.979z m-335.042 145a29.979 29.979 0 1 1 0-59.957h221.226a29.979 29.979 0 1 1 0 59.957H246.307z"  p-id="22091"></path></svg>